<svg width="15" height="12" viewBox="0 0 15 12" fill="none" xmlns="http://www.w3.org/2000/svg">
<path d="M2.23254 0.0666863C2.03828 0.159467 1.9426 0.272543 1.71065 0.698755C1.40621 1.25834 0.461005 2.969 0.28994 3.27633C0.043491 3.71413 0.0028994 3.8649 0 4.29113C0 4.67383 0.043491 4.8623 0.19716 5.14935C0.231952 5.21603 1.04959 6.56425 2.01509 8.14733C3.9258 11.2845 3.9374 11.299 4.3781 11.5947C4.63035 11.7629 4.95218 11.8934 5.27693 11.96C5.47988 12.0006 5.74663 12.0035 7.37898 11.9977C9.2143 11.989 9.252 11.9861 9.48105 11.9224C9.97105 11.7861 10.4234 11.4903 10.7191 11.1192C10.7945 11.0235 11.0496 10.6437 11.2874 10.2784C11.5251 9.91015 12.337 8.65763 13.0908 7.49495C13.8447 6.3294 14.4912 5.3117 14.5289 5.23343C14.7 4.8681 14.7319 4.3259 14.6014 3.94608C14.5666 3.8446 14.3753 3.46478 14.181 3.10525C13.9838 2.74573 13.6243 2.08467 13.3808 1.63816C13.1401 1.19166 12.8879 0.756743 12.8212 0.669763C12.6762 0.4813 12.4182 0.28414 12.1688 0.168165C11.8122 0.0057981 11.7368 0 9.90435 0C8.01685 0 7.99655 0.00289869 7.57325 0.223253C7.20793 0.414615 7.02525 0.62917 6.49468 1.50479C6.23953 1.9252 5.99598 2.34272 5.95248 2.4326C5.8539 2.62975 5.8452 2.853 5.92638 3.03278C6.02495 3.25023 7.3007 5.3204 7.40508 5.43348C7.59063 5.63355 7.85738 5.70313 8.13863 5.62485C8.36188 5.56105 8.49235 5.3842 9.2578 4.13165C10.6031 1.9223 10.9221 1.40621 10.983 1.33952C11.1279 1.18296 11.4005 1.10177 11.6005 1.15686C11.8296 1.21775 11.9311 1.32503 12.1398 1.71355C13.4793 4.22443 13.5576 4.3781 13.575 4.53468C13.5866 4.65065 13.5779 4.71733 13.5344 4.8188C13.4735 4.95508 10.145 10.0261 10.0377 10.145C9.81158 10.3915 9.35348 10.3857 9.11283 10.1276C9.07223 10.0841 7.7095 7.86608 6.08875 5.20443C4.46798 2.53988 3.10525 0.316035 3.06178 0.260945C2.8733 0.026094 2.49929 -0.0608875 2.23254 0.0666863Z" fill="#18181B"/>
</svg>