<svg width="175" height="57" viewBox="0 0 175 57" fill="none" xmlns="http://www.w3.org/2000/svg">
<path d="M7.12036 0.610399C6.7837 0.467393 6.27721 0.303521 5.93756 0.232019C5.51152 0.139657 4.57303 0.124769 4.14996 0.202234C3.10123 0.392911 2.30873 0.780225 1.60859 1.44164C0.988884 2.02559 0.351296 2.95812 0.220205 3.46758C-0.00324517 4.3584 -0.0151654 5.80936 0.00866928 31.2648L0.0265628 52.2989L0.178504 52.7011C0.518149 53.6069 0.899499 54.2087 1.49239 54.7748C2.07634 55.3349 2.67518 55.6954 3.44384 55.9486C4.00098 56.1304 4.29594 56.1661 5.05568 56.1482C5.77965 56.1304 6.07461 56.0886 6.5364 55.9337L6.54029 55.9324C7.14714 55.7311 7.14988 55.7302 15.4208 51.1161C27.0938 44.6063 43.6917 35.3227 45.0503 34.5421C45.1605 34.4765 45.2499 34.4169 45.2499 34.405C45.2499 34.2978 40.3072 31.4942 39.1631 30.952C38.6119 30.6898 37.9743 30.5796 37.4291 30.6511C36.9316 30.7166 36.3387 30.946 35.5224 31.3899C31.8339 33.395 10.1384 45.5716 9.58724 45.947C9.39656 46.0781 8.94074 46.5428 8.77389 46.7812C8.3836 47.3294 8.33293 47.6363 8.27633 49.6622C8.24057 51.0953 8.21973 51.5541 8.18398 51.8639C8.10056 52.57 7.67153 53.2374 6.96543 53.7558C6.71219 53.9435 5.99417 54.2981 5.77966 54.3427C5.53834 54.3934 4.59983 54.3815 4.26913 54.3249C3.63453 54.2117 3.06548 53.8512 2.49047 53.1927C1.99888 52.6296 1.78437 51.9801 1.82012 51.1459C1.838 50.6722 1.90055 50.4309 2.1091 50.0048C2.49641 49.2153 2.99694 48.8131 4.92457 47.7405C6.28315 46.9868 6.84924 46.5041 7.2157 45.7921C7.42425 45.3839 7.46894 45.2021 7.50171 44.5854C7.55534 43.638 7.5881 36.2313 7.5881 25.0082C7.5881 13.9459 7.57322 12.0064 7.4898 11.5118C7.35275 10.7074 7.07566 10.1383 6.59897 9.69141C6.32189 9.42923 5.73497 9.04788 4.73093 8.47287C2.93141 7.44798 2.46662 7.04875 2.0525 6.19367C1.96907 6.02088 1.88864 5.80934 1.87077 5.71996C1.85587 5.63356 1.84096 5.30285 1.84096 4.99002C1.84096 4.34351 1.86481 4.2154 2.04953 3.81915C2.43982 2.98791 3.16081 2.35033 4.07546 2.03452C4.22145 1.98388 4.32871 1.97792 5.01395 1.97792C5.68132 1.97792 5.81242 1.98686 5.96735 2.03155C6.76879 2.27883 7.60301 2.99387 7.98735 3.76552C8.04395 3.87874 8.10651 4.0277 8.12438 4.09324C8.18695 4.34053 8.24357 5.53525 8.29422 7.74293L8.31506 8.62183L8.50276 9.00319C8.76793 9.53947 8.86923 9.6795 9.22675 10.037C9.59619 10.4035 9.73024 10.4958 10.6777 11.0381C13.2578 12.5128 23.7272 18.3702 31.0385 22.4311C35.6624 24.9993 36.2046 25.2972 36.4877 25.4104C37.1014 25.6607 37.8403 25.7411 38.4242 25.619C38.9694 25.5087 39.2197 25.3866 41.2516 24.2604C43.8675 22.8065 45.1754 22.0318 45.2082 21.9097C45.217 21.8773 45.1647 21.8478 42.8756 20.5566L42.7919 20.5094C40.8233 19.398 38.9983 18.3774 28.2564 12.3705L27.9995 12.2268C10.341 2.35033 7.51661 0.780221 7.12036 0.610399Z" fill="#25272A"/>
<path d="M64.9141 12.2578L74.1719 33.2812L83.1953 12.2578H89.8281L75.3672 45.4219H73.1641L58.2344 12.2578H64.9141Z" fill="#25272A"/>
<path d="M96.0156 12.9844C96.9062 12.9844 97.6719 13.3047 98.3125 13.9453C98.9531 14.5859 99.2734 15.3516 99.2734 16.2422C99.2734 17.1016 98.9531 17.8672 98.3125 18.5391C97.6875 19.1953 96.9219 19.5234 96.0156 19.5234C95.1406 19.5234 94.375 19.1953 93.7188 18.5391C93.0781 17.8672 92.7578 17.1016 92.7578 16.2422C92.7578 15.3359 93.0859 14.5703 93.7422 13.9453C94.3984 13.3047 95.1562 12.9844 96.0156 12.9844ZM98.8984 23.1094V45H93.1328V23.1094H98.8984Z" fill="#25272A"/>
<path d="M119.641 23.6016V12.2578H125.383V45H115.258C111.758 45 108.953 43.9922 106.844 41.9766C104.75 39.9609 103.703 37.2109 103.703 33.7266C103.703 31.6641 104.188 29.7891 105.156 28.1016C106.141 26.4141 107.484 25.0938 109.188 24.1406C110.906 23.1719 112.758 22.6875 114.742 22.6875C116.273 22.6875 117.906 22.9922 119.641 23.6016ZM116.617 40.5938H119.641V27.9141C118.453 27.3047 117.219 27 115.938 27C114.016 27 112.477 27.6016 111.32 28.8047C110.18 30.0078 109.609 31.5859 109.609 33.5391C109.609 38.2422 111.945 40.5938 116.617 40.5938Z" fill="#25272A"/>
<path d="M136.703 23.1094V36.6562C136.703 38.0781 137.055 39.1641 137.758 39.9141C138.477 40.6484 139.422 41.0156 140.594 41.0156C141.562 41.0156 142.492 40.7188 143.383 40.125C144.273 39.5312 144.992 38.6953 145.539 37.6172V23.1094H151.305V45H145.539V42.0234C143.461 44.2891 141.211 45.4219 138.789 45.4219C136.445 45.4219 134.555 44.6562 133.117 43.125C131.68 41.5938 130.961 39.5938 130.961 37.125V23.1094H136.703Z" fill="#25272A"/>
<path d="M169.586 22.6875C170.352 22.6875 171.102 22.8594 171.836 23.2031C172.586 23.5469 173.453 24.125 174.438 24.9375L172.375 29.9766C170.703 28.7266 169.359 28.1016 168.344 28.1016C167.453 28.1016 166.57 28.4375 165.695 29.1094C164.836 29.7656 164.141 30.6406 163.609 31.7344C163.094 32.8281 162.836 33.9219 162.836 35.0156V45H157.07V23.1094H162.836V28.6875H162.93C163.977 26.5781 165.031 25.0547 166.094 24.1172C167.156 23.1641 168.32 22.6875 169.586 22.6875Z" fill="#25272A"/>
</svg>
